<?xml version="1.0" encoding="utf-8"?>
<!-- Generator: Adobe Illustrator 24.0.0, SVG Export Plug-In . SVG Version: 6.00 Build 0)  -->
<svg version="1.1" id="Layer_1" xmlns="http://www.w3.org/2000/svg" xmlns:xlink="http://www.w3.org/1999/xlink" x="0px" y="0px"
	 viewBox="0 0 40 40" style="enable-background:new 0 0 40 40;" xml:space="preserve">
<style type="text/css">
	.st0{fill:none;stroke:#3886CF;stroke-miterlimit:10;}
	.st1{fill:none;stroke:#3886CF;stroke-width:0.5;stroke-miterlimit:10;}
</style>
<g>
	<path class="st0" d="M-7-54.4c0-6,0-12.1,0-18.1c0.4-0.6,0.9-1,1.6-1.2c1.3-0.5,2.7-0.7,4.1-0.8c0.7-0.1,1.3-0.1,2-0.1
		c0-0.5,0-0.9,0-1.4c-0.1-0.8,0.3-1.3,1-1.7c1.1-0.7,2.4-1,3.6-1.2c0.3-0.1,0.6,0.2,0.7,0.5c0.1,0.3-0.1,0.6-0.5,0.7
		c-0.1,0-0.2,0-0.2,0c-0.9,0.3-1.9,0.6-2.8,0.9c-0.2,0.1-0.4,0.3-0.7,0.5c0.5,0.3,0.8,0.5,1.2,0.7C4.5-75,6.3-74.7,8-74.5
		c4,0.4,8,0.4,11.9-0.3c1.2-0.2,2.4-0.4,3.5-1c0.3-0.1,0.5-0.3,0.8-0.5c0-0.1,0-0.1,0-0.2c-0.4-0.2-0.7-0.5-1.1-0.6
		c-1.2-0.3-2.5-0.7-3.7-0.9c-3.7-0.6-7.4-0.6-11.1-0.2c-0.5,0-0.7-0.1-0.8-0.5c0-0.4,0.2-0.6,0.6-0.7c0.1,0,0.2,0,0.2,0
		c1.1-0.1,2.1-0.1,3.2-0.2c3.3-0.1,6.7,0.1,9.9,0.8c1,0.2,2,0.5,2.9,1.1c0.6,0.4,1,0.9,0.9,1.7c0,0.5,0,1,0,1.5c0.3,0,0.6,0,0.9,0
		c1.6,0.1,3.2,0.2,4.7,0.7c0.8,0.2,1.6,0.5,2,1.3c0,6,0,12.1,0,18.1c-0.2,0.2-0.3,0.4-0.5,0.6c-0.7,0.5-1.5,0.8-2.3,0.9
		c-0.3,0.1-0.6-0.2-0.6-0.5c0-0.4,0.2-0.5,0.5-0.6c0.5-0.2,1-0.3,1.4-0.5c0.1,0,0.3-0.2,0.3-0.3c0-1,0-1.9,0-2.9
		c-2.1,0.8-4.3,0.9-6.5,1c0,1.1,0,2.1,0,3.2c0.7,0,1.4-0.1,2.1-0.1c0.4,0,0.7,0.3,0.6,0.7c-0.1,0.4-0.3,0.5-0.7,0.5
		c-0.7,0-1.4,0.1-2,0.1c0,0.1,0,0.1,0,0.1c0,0.1,0,0.1,0,0.2c0.1,0.9-0.3,1.5-1.1,1.9c-0.7,0.3-1.4,0.6-2.1,0.8
		c-2.6,0.7-5.2,0.9-7.9,1c-3.4,0.1-6.8,0-10.2-0.9c-0.9-0.2-1.7-0.6-2.5-1c-0.6-0.3-1-0.9-0.9-1.7c0-0.1,0-0.2,0-0.4
		c-0.4,0-0.7,0-1,0c-1.7-0.1-3.4-0.3-5-0.8C-6.1-53.4-6.7-53.8-7-54.4z M1.8-74.8c0,1.4,0,2.7,0,4.1c0,0.6,0.2,0.9,0.7,1.1
		c1,0.3,2.1,0.7,3.2,0.9c3.4,0.6,6.9,0.7,10.3,0.5c0.3,0,0.6,0,0.9,0c0.3,0,0.6,0.2,0.6,0.5c0,0.3-0.2,0.5-0.5,0.6
		c-0.1,0-0.2,0-0.3,0c-3.2,0.2-6.5,0.2-9.7-0.2c-1.6-0.2-3.2-0.5-4.7-1.1c-0.2-0.1-0.4-0.2-0.6-0.3c0,1.5,0,2.9,0,4.3
		c0,0.3,0.1,0.6,0.4,0.7c0.7,0.3,1.3,0.6,2,0.8c2.4,0.7,4.9,0.8,7.5,0.9c3.2,0.1,6.3,0,9.4-0.7c0.9-0.2,1.8-0.6,2.7-0.9
		c0.3-0.1,0.4-0.4,0.4-0.7c0-0.4,0-0.9,0-1.3c0-1,0-2,0-3c-0.1,0-0.2,0.1-0.2,0.1c-1.3,0.6-2.7,0.9-4,1.1c-0.3,0-0.5,0-0.7-0.3
		c-0.2-0.4,0-0.8,0.4-0.9c0.5-0.1,1-0.1,1.5-0.3c0.9-0.3,1.7-0.6,2.6-0.9c0.3-0.1,0.5-0.4,0.4-0.7c0-1.3,0-2.6,0-3.9
		c0-0.1,0-0.2,0-0.4c-2.1,1-4.4,1.3-6.6,1.5c-2.6,0.2-5.3,0.3-8,0.1C6.9-73.4,4.3-73.7,1.8-74.8z M24.2-56.2c-0.1,0-0.1,0-0.1,0
		c-1.4,0.7-2.9,1-4.5,1.2c-4.2,0.6-8.3,0.6-12.5,0.1c-1.6-0.2-3.2-0.5-4.7-1.1c-0.2-0.1-0.4-0.2-0.6-0.2c0,1.3,0.1,2.6,0,3.9
		c0,0.8,0.3,1.2,0.9,1.4c0.1,0,0.2,0.1,0.3,0.1c1.7,0.6,3.6,0.9,5.4,1.1c3.5,0.3,6.9,0.3,10.4-0.1c1.4-0.2,2.9-0.4,4.2-1
		c1-0.4,1.1-0.5,1.1-1.6c0-0.1,0-0.2,0-0.2C24.2-53.9,24.2-55.1,24.2-56.2z M24.2-62.4c-0.5,0.2-0.9,0.4-1.4,0.5
		c-2.5,0.8-5.1,1-7.7,1.1c-2.5,0.1-4.9,0-7.4-0.2c-2-0.2-3.9-0.5-5.7-1.4c0,0-0.1,0-0.1,0c0,1.3,0,2.7,0,4c0,0.6,0.2,1,0.7,1.1
		c1,0.3,2.1,0.7,3.1,0.9c2.6,0.5,5.3,0.6,8,0.6c2.6,0,5.2-0.2,7.7-0.8c0.8-0.2,1.6-0.5,2.3-0.9c0.3-0.1,0.4-0.3,0.4-0.7
		c0-0.6,0-1.2,0-1.9C24.2-60.8,24.2-61.6,24.2-62.4z M-5.8-57.7c0,0.8,0,1.6,0,2.4c0,0.7,0,0.7,0.6,1c0.2,0.1,0.4,0.2,0.6,0.2
		c1.1,0.2,2.2,0.4,3.3,0.5c0.6,0.1,1.3,0.1,1.9,0.1c0-1.1,0-2.1,0-3.2c-0.3,0-0.5,0-0.7,0c-0.5,0-0.9,0-1.4-0.1
		c-0.4,0-0.6-0.3-0.5-0.6c0-0.3,0.3-0.5,0.6-0.5c0.2,0,0.4,0,0.6,0c0.5,0,1,0,1.5,0.1c0-1.1,0-2.1,0-3.2c-1.1-0.1-2.2-0.1-3.3-0.3
		c-1.1-0.2-2.1-0.4-3.2-0.7c0,0.9,0,1.8,0,2.7c0,0.1,0.1,0.3,0.2,0.3c0.5,0.2,0.9,0.4,1.4,0.5c0.4,0.1,0.6,0.4,0.6,0.8
		c-0.1,0.4-0.4,0.5-0.8,0.4C-4.9-57.4-5.3-57.6-5.8-57.7z M31.8-62c-1.1,0.2-2.1,0.5-3.2,0.7c-1.1,0.2-2.2,0.2-3.3,0.3
		c0,1.1,0,2.1,0,3.2c1.4-0.2,2.7-0.3,4.1-0.5c0.7-0.1,1.4-0.4,2.1-0.6c0.1,0,0.3-0.2,0.3-0.4C31.8-60.2,31.8-61.1,31.8-62z
		 M0.6-69.8c-2.2-0.1-4.4-0.2-6.5-1c0,0.8,0,1.5,0,2.2c0,1,0,1,0.9,1.3c0.1,0,0.2,0.1,0.3,0.1c1.1,0.2,2.2,0.4,3.3,0.5
		c0.6,0.1,1.3,0.1,1.9,0.1C0.6-67.7,0.6-68.7,0.6-69.8z M-5.8-66.4c0,0.7,0,1.4,0,2.2c0,0.8,0,0.8,0.8,1.1c0,0,0,0,0.1,0
		c1.8,0.6,3.7,0.7,5.6,0.8c0-1.1,0-2.1,0-3.2c-1.1-0.1-2.2-0.1-3.2-0.3C-3.7-65.9-4.7-66.1-5.8-66.4z M31.8-70.9
		c-2.1,0.8-4.3,0.9-6.5,1c0,1.1,0,2.1,0,3.3c1.4-0.2,2.8-0.3,4.1-0.5c0.7-0.1,1.4-0.4,2.1-0.6c0.1,0,0.3-0.2,0.3-0.4
		C31.8-69,31.8-69.9,31.8-70.9z M25.4-62.2c1.4-0.2,2.8-0.3,4.1-0.5c0.7-0.1,1.4-0.4,2.1-0.6c0.1,0,0.3-0.2,0.3-0.4
		c0-0.9,0-1.8,0-2.7c-1.1,0.2-2.1,0.5-3.2,0.7c-1.1,0.2-2.2,0.2-3.3,0.3C25.4-64.4,25.4-63.3,25.4-62.2z M25.4-73.4
		c0,0.8,0,1.6,0,2.4c1.8-0.1,3.5-0.2,5.2-0.7c0.4-0.1,0.8-0.3,1.2-0.5C31-73,26.9-73.5,25.4-73.4z M-5.8-72.3
		c0.8,0.9,5.2,1.3,6.4,1.2c0-0.8,0-1.5,0-2.4C-1.6-73.3-3.7-73.2-5.8-72.3z"/>
</g>
<g>
	<path class="st0" d="M36.2-42.3c-0.3-0.2-0.4-0.4-0.4-0.8c0-1,0-2.1,0-3.1c0-0.5,0.2-0.7,0.7-0.7c1,0,2.1,0,3.1,0
		c0.1,0,0.3,0,0.4,0c0-0.2,0-0.3,0-0.4c0-2.1,0-4.2,0-6.3c0-0.1,0-0.3,0-0.4c0-0.3,0.3-0.5,0.6-0.5c0.3,0,0.5,0.2,0.5,0.5
		c0,0.1,0,0.3,0,0.4c0,2.1,0,4.2,0,6.2c0,0.1,0,0.3,0,0.4c1.4,0,2.7,0,4.1,0c0-3.6,0-7.2,0-10.8c-1.3,0-2.6,0-4,0c0,0.3,0,0.6,0,0.9
		c0,0.2,0,0.3,0,0.5c-0.1,0.3-0.3,0.5-0.6,0.5c-0.3,0-0.5-0.2-0.5-0.5c0-0.7,0-1.4,0-2.1c0-0.3,0.2-0.5,0.5-0.5c1.8,0,3.5,0,5.3,0
		c0.3,0,0.5,0.2,0.5,0.6c0,0.1,0,0.2,0,0.3c0,3.5,0,7.1,0,10.6c0,0.1,0,0.3,0,0.5c0.6,0,1.3,0,1.9,0c0-0.1,0-0.3,0-0.4
		c0-6.8,0-13.6,0.1-20.4c0-0.3-0.1-0.5-0.3-0.6c-2.5-1.4-3.8-4.3-3.2-7.1c0.6-2.8,2.9-5,5.8-5.3c3.1-0.4,6.1,1.4,7.2,4.4
		c1.1,3,0,6.3-2.7,8c-0.3,0.2-0.4,0.4-0.4,0.7c0,6.8,0,13.6-0.1,20.5c0,0.1,0,0.2,0,0.4c0.9,0,1.8,0,2.8,0c0-0.2,0-0.3,0-0.5
		c0-2.9,0-5.7,0-8.6c0-0.6,0.2-0.9,0.6-0.8c0.4,0,0.6,0.3,0.6,0.9c0,2.8,0,5.6,0,8.4c0,0.1,0,0.3,0,0.5c1.4,0,2.7,0,4.1,0
		c0-5.5,0-11,0-16.5c-1.3,0-2.6,0-4,0c0,0.1,0,0.3,0,0.4c0,1.4,0,2.7,0,4.1c0,0.1,0,0.3,0,0.4c-0.1,0.3-0.3,0.4-0.6,0.4
		c-0.3,0-0.5-0.2-0.5-0.5c0-0.1,0-0.2,0-0.4c0-1.6,0-3.3,0-4.9c0-0.6,0.2-0.8,0.8-0.8c1.6,0,3.3,0,4.9,0c0.5,0,0.7,0.2,0.7,0.7
		c0,2.5,0,5,0,7.6c0,3,0,6,0,9c0,0.1,0,0.3,0,0.5c0.9,0,1.7,0,2.6,0c0.7,0,0.8,0.2,0.8,0.8c0,1,0,2,0,3c0,0.3-0.1,0.6-0.4,0.8
		C56.7-42.3,46.5-42.3,36.2-42.3z M53.7-46.9c0-6.9,0-13.9,0-20.7c-0.7,0.1-1.3,0.2-2,0.2c-0.7,0-1.3-0.1-2-0.2c0,6.9,0,13.8,0,20.7
		C50.9-46.9,52.3-46.9,53.7-46.9z M66.2-45.8c-9.7,0-19.4,0-29.2,0c0,0.8,0,1.5,0,2.3c9.7,0,19.4,0,29.2,0
		C66.2-44.2,66.2-45,66.2-45.8z M46-74.1c0,3.1,2.5,5.6,5.6,5.6c3.1,0,5.6-2.5,5.6-5.6c0-3.1-2.5-5.6-5.6-5.6
		C48.5-79.7,46-77.2,46-74.1z"/>
	<path class="st0" d="M51.6-77.8c0.2,0.2,0.4,0.3,0.5,0.5c0.3,0.4,0.5,0.9,0.7,1.3c0.1,0.1,0.3,0.3,0.4,0.3c0.5,0.1,0.9,0.2,1.4,0.3
		c0.3,0,0.6,0.1,0.6,0.4c0,0.2-0.1,0.5-0.2,0.7c-0.3,0.4-0.7,0.7-1,1.1c-0.1,0.1-0.2,0.3-0.1,0.4c0,0.5,0.2,1,0.2,1.6
		c0,0.2-0.1,0.5-0.2,0.6c-0.2,0.1-0.5,0.1-0.7,0c-0.5-0.2-0.9-0.5-1.4-0.7c-0.1-0.1-0.3-0.1-0.4,0c-0.5,0.2-0.9,0.5-1.4,0.6
		c-0.2,0.1-0.5,0.1-0.7,0c-0.1-0.1-0.2-0.4-0.2-0.6c0-0.5,0.1-0.9,0.2-1.4c0-0.3,0-0.4-0.2-0.6c-0.4-0.3-0.7-0.7-1-1.1
		c-0.4-0.4-0.2-0.9,0.3-1c0.5-0.1,1-0.2,1.5-0.3c0.2,0,0.4-0.2,0.4-0.3c0.3-0.4,0.5-0.9,0.7-1.3C51.2-77.5,51.4-77.6,51.6-77.8z
		 M53.6-74.5c-1.1,0-1.7-0.5-2-1.5c-0.3,0.5-0.5,0.9-0.8,1.2c-0.3,0.2-0.8,0.2-1.4,0.4c1,0.6,1.1,1.4,0.9,2.3c0.9-0.7,1.7-0.6,2.5,0
		C52.5-73.1,52.8-73.8,53.6-74.5z"/>
</g>
<path class="st0" d="M111.5-61.8c0.4-0.6,0.6-0.7,1.3-0.4c2,0.7,4,1.5,6.1,2.2c1.4,0.5,2.2,1.4,2.4,2.9c0.1,0,0.2,0,0.3,0
	c1.6-0.1,3.3-0.3,4.9-0.4c0.8,0,1.4-0.3,2-0.7c2-1.3,4.1-1.4,6.3-0.3c1.8,0.9,3.7,1.7,5.6,2.2c0-0.1,0.1-0.2,0.1-0.2
	c0.3-0.8,0.9-1.5,1.7-1.8c2.2-0.8,4.4-1.6,6.7-2.4c0.6-0.2,1.1,0.2,1.1,0.9c0,4.5,0,8.9,0,13.4c0,0.8,0,1.6,0,2.4
	c0,0.6-0.3,0.9-0.9,0.9c-0.8,0-1.5,0-2.3,0c-1,0-1.9-0.5-2.5-1.3c-0.6,0.3-1.3,0.7-1.9,1c-0.1,0-0.1,0.2-0.1,0.3
	c-0.1,1.5-1.1,2.6-2.6,2.7c-0.1,0-0.3,0.1-0.3,0.2c-0.7,1.1-1.7,1.5-2.9,1.4c-0.2,0-0.3,0-0.4,0.2c-0.7,1.3-2.1,1.7-3.2,1.3
	c-0.1,0-0.2,0-0.3,0c-0.9,0.5-1.9,0.5-2.8,0.3c-0.8-0.2-1.5-0.6-2.2-1.1c-2.4-1.9-4.8-3.8-7.2-5.6c-1-0.8-2.1-1.6-3.1-2.4
	c-0.1,0.1-0.1,0.1-0.2,0.2c-0.6,0.7-1.4,1-2.4,1c-0.7,0-1.4,0-2.1,0c-0.5,0-0.9-0.1-1.1-0.6C111.5-50.8,111.5-56.3,111.5-61.8z
	 M117.9-47.4c0.1,0.1,0.3,0.2,0.4,0.3c1.3,1,2.5,2,3.8,2.9c2.2,1.7,4.4,3.4,6.6,5.1c0.5,0.4,1.1,0.5,1.7,0.7c0.2,0.1,0.5,0,0.8,0.1
	c0-0.1,0-0.1,0-0.1c-0.6-0.6-1.2-1.1-1.7-1.7c-0.5-0.5-1-1.1-1.5-1.6c-0.3-0.3-0.3-0.8,0.1-1.1c0.3-0.3,0.8-0.3,1.1,0
	c0.1,0.1,0.2,0.3,0.4,0.4c1.2,1.2,2.3,2.3,3.5,3.5c0.6,0.6,1.3,0.4,1.8-0.3c0.1-0.2,0.1-0.3-0.1-0.5c-1.1-1.1-2.2-2.2-3.3-3.3
	c-0.5-0.5-0.5-1-0.2-1.3c0.4-0.4,0.8-0.3,1.4,0.2c1.2,1.2,2.4,2.4,3.5,3.6c0.5,0.5,1.5,0.3,1.9-0.2c0.2-0.2,0.2-0.3,0-0.5
	c-0.8-0.8-1.6-1.5-2.4-2.3c-0.7-0.7-1.3-1.4-2-2.1c-0.3-0.4-0.3-0.8,0-1.1c0.3-0.3,0.8-0.3,1.1,0c0.1,0.1,0.2,0.2,0.3,0.3
	c1.4,1.4,2.8,2.9,4.3,4.3c0.4,0.4,0.8,0.4,1.3-0.1c0.3-0.4,0.4-0.8,0.1-1.2c-0.5-0.6-1-1.2-1.5-1.7c-2.4-2.1-4.9-4.2-7.4-6.3
	c-0.1-0.1-0.2-0.1-0.3-0.1c-0.5,0.2-1.1,0.3-1.6,0.5c-0.1,0-0.2,0.1-0.3,0.2c-1,1-2.1,1.5-3.5,1.4c-1.5,0-2.6-1.4-2.3-2.8
	c0.1-0.8,0.5-1.5,1-2.2c0.3-0.4,0.6-0.8,1-1.2c-0.1,0-0.2,0-0.3,0c-1.4,0.1-2.8,0.2-4.2,0.3c-0.1,0-0.3,0.2-0.3,0.3
	c-0.5,1.2-0.9,2.4-1.3,3.5C118.9-50.2,118.4-48.8,117.9-47.4z M141.6-44.8c0.5-0.3,1-0.6,1.6-0.9c0.3-0.2,0.4-0.3,0.2-0.7
	c-1-2.7-2-5.4-3-8c0-0.1-0.2-0.2-0.3-0.3C138-55.2,136-56,134-57c-1.6-0.8-3.2-0.7-4.8,0.3c-1.3,0.8-2.5,1.9-3.4,3.1
	c-0.3,0.4-0.5,0.9-0.7,1.3c-0.3,0.7,0.2,1.3,1,1.2c0.9-0.1,1.7-0.5,2.3-1.2c0.1-0.2,0.4-0.4,0.6-0.4c0.7-0.1,1.3-0.3,1.9-0.7
	c0.5-0.3,0.8-0.2,1.2,0.2c0.4,0.4,0.9,0.8,1.3,1.2C136.3-49.6,139.2-47.6,141.6-44.8z M113.1-60.4c0,4.7,0,9.4,0,14.1
	c0.5,0,0.9,0,1.3,0c0.9,0,1.4-0.4,1.7-1.2c1.1-2.9,2.2-5.8,3.3-8.7c0.4-1,0-1.9-1-2.2c-1.2-0.4-2.4-0.9-3.6-1.3
	C114.3-60,113.7-60.2,113.1-60.4z M148.4-58.8c-0.1,0-0.2,0-0.2,0.1c-1.7,0.6-3.4,1.2-5.1,1.9c-1,0.4-1.4,1.2-1,2.2
	c0.3,0.9,0.7,1.8,1,2.7c0.8,2,1.5,4.1,2.3,6.1c0.2,0.6,0.7,1.1,1.3,1.1c0.6,0.1,1.1,0,1.7,0C148.4-49.4,148.4-54.1,148.4-58.8z"/>
<g>
	<g>
		<g>
			<path class="st1" d="M-64.5-17.2c0-0.4,0-0.8,0-1.2c0.6-0.1,1.2-0.1,1.9-0.2c3.6-0.5,6.8-1.9,9.7-3.9c3.4-2.3,6.2-5.3,8.6-8.6
				c0.4-0.6,0.8-1.2,1.3-1.8c0.3-0.5,0.5-0.5,1-0.4c0.2,0.1,0.4,0.1,0.6,0.2c-0.3-1.2-0.5-2.3-0.8-3.6c-1.1,0.6-2.2,1.2-3.4,1.9
				c0.3,0.1,0.5,0.1,0.7,0.2c0.7,0.2,0.8,0.6,0.4,1.1c-1.1,1.5-2.4,2.9-3.8,4.2c-3.8,3.5-8.3,5.7-13.4,6.6c-0.4,0.1-0.7,0.1-1.1,0.2
				c-0.1-0.4-0.1-0.8-0.2-1.2c0.5-0.1,0.9-0.2,1.3-0.2c0.2,0,0.3-0.1,0.4-0.4c0.4-3,0.9-6,1.3-9c0.1-0.6,0-1.2-0.1-1.9
				c0-0.3-0.1-0.6-0.1-1c-0.1,0.1-0.2,0.2-0.3,0.3c-0.8,1.1-1.6,2.1-2.4,3.2c-0.3,0.4-0.7,0.7-1.3,0.7c-0.4,0-0.7,0.1-1.1,0.1
				c-0.5,0-0.9-0.1-1.2-0.6c-0.3-0.4-0.2-0.9,0.1-1.3c1.6-2.2,3.2-4.4,4.8-6.6c0.4-0.5,0.9-0.8,1.6-1c-1-1.7-1-3.1,0.1-4.2
				c1-1,2.5-1.1,3.6-0.5c1.3,0.8,1.7,2.1,1.2,3.9c0.1-0.1,0.2-0.2,0.3-0.2c1.3-1,2.7-2.1,4-3.1c0.9-0.7,1.5-0.6,2.2,0.3
				c0.1,0.2,0.3,0.4,0.4,0.7c0.5,0.7,0.4,1.3-0.3,1.8c-1.7,1.3-3.4,2.6-5.1,3.9c-0.2,0.2-0.3,0.3-0.3,0.6c0.1,0.8,0.2,1.6,0.3,2.3
				c0,0.1,0.1,0.3,0.3,0.3c0.7,0.4,1.4,0.8,2.1,1.1c0.4,0.2,0.6,0.5,0.8,0.9c0.3,1.1,0.7,2.2,1,3.4c1.2-1.1,2.3-2.2,3.3-3.5
				c-0.5-0.1-0.9-0.3-1.4-0.4c-0.3-0.1-0.5-0.2-0.6-0.5c0-0.3,0.1-0.5,0.4-0.7c1.7-1,3.5-1.9,5.2-2.9c0.5-0.3,0.9-0.1,1,0.4
				c0.4,1.7,0.8,3.5,1.2,5.2c0.1,0.6-0.3,0.9-0.9,0.8c-0.3-0.1-0.6-0.2-0.9-0.3c-0.3-0.1-0.4,0-0.5,0.2c-1.2,1.8-2.6,3.6-4.1,5.2
				c-3.1,3.4-6.7,6.1-11.1,7.8c-2.2,0.8-4.4,1.3-6.7,1.5C-64.3-17.2-64.4-17.2-64.5-17.2z M-65.3-33c0.4,0,0.6-0.1,0.9-0.1
				c0.4,0,0.6-0.2,0.8-0.5c1.1-1.5,2.3-3,3.4-4.5c0.2-0.3,0.4-0.4,0.8-0.3c0.3,0.1,0.4,0.4,0.4,0.7c0.1,0.9,0.2,1.7,0.2,2.6
				c0,0.6,0.1,1.2,0.1,1.8c-0.3,2.3-0.7,4.6-1,6.9c-0.1,0.7-0.2,1.4-0.3,2.2c0.5-0.1,0.9-0.3,1.3-0.4c0.3-0.1,0.4-0.3,0.5-0.6
				c0.5-2.7,0.9-5.4,1.4-8c0.1-0.7,0.5-0.8,1.1-0.5c0.8,0.4,1.6,0.8,2.5,1.2c0.5,0.2,0.8,0.6,1,1.1c0.3,1,0.7,2,1.1,3
				c0.3-0.2,0.6-0.5,0.9-0.7c0.2-0.1,0.2-0.3,0.1-0.5c-0.4-1.2-0.7-2.4-1.1-3.5c0-0.2-0.2-0.3-0.3-0.4c-0.8-0.4-1.6-0.8-2.4-1.2
				c-0.3-0.1-0.4-0.3-0.5-0.6c-0.1-1.1-0.3-2.2-0.4-3.2c-0.1-0.4,0.1-0.7,0.4-1c1.8-1.3,3.5-2.7,5.2-4c0.1-0.1,0.2-0.2,0.3-0.3
				c-0.2-0.4-0.5-0.7-0.7-1c-0.2,0.1-0.3,0.3-0.5,0.4c-1.5,1.2-3,2.3-4.5,3.5c-0.2,0.2-0.5,0.3-0.7,0.3c-1.3,0.1-2.7,0.2-4,0.4
				c-0.6,0-1,0.3-1.3,0.8c-0.4,0.6-0.9,1.2-1.4,1.8C-63-36.1-64.1-34.6-65.3-33z M-57-25.2c1.7-0.7,3.1-1.4,4.6-2.3
				c0.2-0.1,0.2-0.2,0.1-0.4c-0.3-1-0.7-1.9-1-2.9c-0.1-0.4-0.3-0.6-0.7-0.7c-0.6-0.2-1.1-0.5-1.7-0.8C-56.2-30-56.6-27.6-57-25.2z
				 M-57.7-45.2c-1,0-1.8,0.8-1.8,1.8c0,1,0.8,1.8,1.8,1.8c1,0,1.8-0.8,1.8-1.8C-55.9-44.4-56.7-45.2-57.7-45.2z"/>
			<path class="st1" d="M-73.9-28.4c0.3,0.2,0.6,0.5,0.8,0.7c0.2,0.2,0.3,0.2,0.5,0.1c0.3-0.1,0.2-0.3,0.2-0.5
				c0-1.1,0.1-1.1,1.1-1.1c0.5,0,1,0,1.5,0c0.8,0,1,0.1,1,1c0,0.1,0,0.1,0,0.2c0,0.2,0,0.4,0.3,0.5c0.2,0.1,0.4,0,0.5-0.1
				c0.8-0.8,0.9-0.8,1.7,0c0.4,0.4,0.7,0.7,1.1,1.1c0.5,0.5,0.5,0.7,0,1.2c-0.1,0.1-0.2,0.2-0.2,0.2c-0.1,0.1-0.2,0.2-0.1,0.5
				c0.1,0.2,0.2,0.3,0.4,0.3c1.2,0,1.2,0,1.2,1.2c0,0.6,0,1.1,0,1.7c0,0.5-0.2,0.7-0.7,0.7c-0.1,0-0.3,0-0.4,0c-0.2,0-0.4,0-0.5,0.3
				c-0.1,0.3,0,0.4,0.2,0.5c0.8,0.8,0.8,0.9,0,1.6c-0.4,0.4-0.8,0.8-1.2,1.2c-0.4,0.4-0.7,0.4-1,0c-0.1-0.1-0.2-0.2-0.3-0.3
				c-0.1-0.2-0.3-0.2-0.5-0.1c-0.2,0.1-0.3,0.2-0.3,0.5c0,1.1-0.1,1.2-1.2,1.2c-0.6,0-1.1,0-1.7,0c-0.5,0-0.7-0.2-0.7-0.7
				c0-0.1,0-0.3,0-0.4c0-0.2,0-0.4-0.3-0.5c-0.3-0.1-0.4,0-0.5,0.2c-0.8,0.8-0.9,0.8-1.6,0c-0.4-0.4-0.8-0.8-1.2-1.2
				c-0.4-0.4-0.4-0.7,0-1.1c0.1-0.1,0.2-0.2,0.3-0.3c0.2-0.1,0.3-0.3,0.1-0.5c-0.1-0.2-0.2-0.3-0.5-0.3c-1.1,0-1.2,0-1.2-1.2
				c0-0.6,0-1.1,0-1.7c0-0.5,0.2-0.7,0.7-0.7c0.2,0,0.3,0,0.5,0c0.2,0,0.4,0,0.5-0.3c0.1-0.2,0-0.3-0.1-0.5c-0.8-0.8-0.8-0.9,0-1.7
				c0.4-0.4,0.8-0.8,1.2-1.2C-74.3-28.2-74.1-28.2-73.9-28.4z M-67.3-26.9c-0.1,0.2-0.3,0.4-0.4,0.5c-0.3,0.3-0.5,0.3-0.9,0.1
				c-0.3-0.2-0.6-0.3-0.9-0.4c-0.4-0.1-0.5-0.3-0.5-0.7c0-0.2,0-0.4,0-0.6c-0.4,0-0.8,0-1.2,0c0,0.2,0,0.4,0,0.6
				c0,0.5-0.1,0.6-0.6,0.8c-0.3,0.1-0.6,0.2-0.9,0.4c-0.4,0.2-0.6,0.2-0.9-0.2c-0.1-0.1-0.2-0.3-0.3-0.4c-0.4,0.4-0.7,0.6-1,0.9
				c0.1,0.1,0.3,0.2,0.4,0.3c0.4,0.4,0.4,0.5,0.2,1c-0.1,0.3-0.3,0.6-0.4,0.9c-0.1,0.3-0.3,0.5-0.7,0.5c-0.2,0-0.4,0-0.7,0
				c0,0.4,0,0.8,0,1.2c0.2,0,0.4,0,0.6,0c0.4,0,0.6,0.2,0.7,0.5c0.1,0.3,0.2,0.6,0.4,0.9c0.2,0.3,0.1,0.6-0.1,0.9
				c-0.2,0.1-0.3,0.2-0.4,0.3c0.4,0.4,0.6,0.7,0.9,1c0.1-0.2,0.3-0.3,0.4-0.5c0.2-0.2,0.5-0.3,0.8-0.1c0.4,0.2,0.7,0.3,1.1,0.4
				c0.3,0.1,0.4,0.3,0.5,0.6c0,0.2,0,0.5,0,0.7c0.4,0,0.8,0,1.2,0c0-0.2,0-0.5,0-0.7c0-0.3,0.2-0.5,0.5-0.6c0.4-0.1,0.7-0.3,1.1-0.4
				c0.3-0.1,0.5-0.1,0.8,0.1c0.2,0.2,0.3,0.4,0.4,0.5c0.4-0.3,0.6-0.6,1-0.9c-0.2-0.1-0.3-0.3-0.5-0.4c-0.3-0.3-0.3-0.6-0.1-0.9
				c0.2-0.3,0.3-0.6,0.4-0.9c0.1-0.3,0.3-0.5,0.7-0.5c0.2,0,0.4,0,0.6,0c0-0.4,0-0.8,0-1.2c-0.2,0-0.4,0-0.6,0
				c-0.5,0-0.6-0.1-0.8-0.6c-0.1-0.3-0.3-0.6-0.4-0.9c-0.1-0.3-0.1-0.6,0.1-0.8c0.2-0.2,0.4-0.3,0.5-0.4
				C-66.7-26.3-66.9-26.5-67.3-26.9z"/>
			<path class="st1" d="M-47-45.4c0.1-0.6,0.2-1.3,0.3-2c0-0.3,0-0.5-0.2-0.7c-0.4-0.4-0.9-0.8-1.2-1.3c-0.1-0.2-0.3-0.5-0.2-0.7
				c0.1-0.2,0.3-0.4,0.5-0.4c0.6-0.1,1.2-0.2,1.8-0.3c0.2,0,0.4-0.1,0.4-0.3c0.2-0.6,0.5-1.1,0.8-1.7c0.1-0.3,0.3-0.5,0.6-0.5
				c0.3,0,0.5,0.2,0.6,0.5c0.2,0.5,0.5,1.1,0.8,1.6c0.1,0.2,0.3,0.3,0.5,0.4c0.6,0.1,1.2,0.2,1.7,0.3c0.6,0.1,0.8,0.6,0.3,1.1
				c-0.4,0.4-0.8,0.9-1.3,1.3c-0.2,0.2-0.2,0.4-0.2,0.6c0.1,0.6,0.2,1.2,0.3,1.8c0,0.2-0.1,0.5-0.2,0.6c-0.2,0.1-0.5,0.1-0.7,0
				c-0.5-0.2-1.1-0.6-1.6-0.9c-0.2-0.1-0.4-0.1-0.6,0c-0.5,0.3-1.1,0.6-1.6,0.9C-46.6-44.6-47-44.9-47-45.4z M-45.6-46.5
				c0.3-0.2,0.5-0.2,0.7-0.4c0.5-0.4,1-0.4,1.5,0c0.2,0.1,0.4,0.2,0.7,0.4c-0.1-0.4-0.1-0.8-0.2-1.2c-0.1-0.3,0-0.5,0.2-0.7
				c0.3-0.3,0.6-0.6,0.9-0.9c-0.4-0.1-0.7-0.1-1-0.2c-0.4,0-0.7-0.2-0.8-0.6c-0.1-0.3-0.3-0.6-0.5-1c-0.2,0.4-0.3,0.7-0.5,1
				c-0.1,0.4-0.4,0.5-0.8,0.6c-0.3,0-0.7,0.1-1,0.2c0,0-0.1,0.1-0.1,0.1c0.3,0.3,0.7,0.5,0.9,0.8c0.1,0.2,0.2,0.5,0.2,0.7
				C-45.4-47.4-45.6-47-45.6-46.5z"/>
			<path class="st1" d="M-70.6-19.6c-1.7,0-3-1.4-3-3c0-1.6,1.4-3,3-3c1.6,0,3,1.4,3,3C-67.6-20.9-68.9-19.6-70.6-19.6z M-70.6-20.8
				c1,0,1.8-0.8,1.8-1.8c0-1-0.8-1.8-1.8-1.8c-1,0-1.8,0.8-1.8,1.8C-72.4-21.6-71.6-20.8-70.6-20.8z"/>
		</g>
	</g>
</g>
<g>
	<path class="st0" d="M0.9,38.4c0.1-0.7,0.2-1.4,0.3-2.1c0.7-4,2.5-7.4,5.4-10.3c1.9-1.9,4.2-3.3,6.7-4.3c0.1,0,0.2-0.1,0.2-0.1
		c0,0,0,0,0,0c-0.7-0.7-1.4-1.3-2-2C8,15.4,8.1,9.2,11.8,5.1C13.7,3,16.1,1.8,19,1.5c0.1,0,0.2,0,0.3-0.1c0.5,0,1,0,1.5,0
		c0.8,0.1,1.5,0.2,2.3,0.4c3.4,1,5.8,3.2,7.2,6.4c1.3,3.1,1.1,6.2-0.5,9.2c-1.5,2.9-4,4.8-7.2,5.6c-0.9,0.2-1.8,0.3-2.7,0.3
		c-4.9,0.1-9,2.1-12.1,5.8c-2.5,2.9-3.7,6.4-3.7,10.2c-1,0-2,0-3,0C0.9,39.1,0.9,38.7,0.9,38.4z M28,12.5c0-4.4-3.6-8-8-8
		c-4.4,0-8,3.6-8,8.1c0,4.4,3.7,8,8,8C24.4,20.5,28,16.8,28,12.5z"/>
	<path class="st0" d="M39,28.8c-2.2,2.2-4.4,4.4-6.7,6.6c-0.1,0.1-0.2,0.2-0.2,0.3c-0.8-0.8-1.4-1.5-2.2-2.2
		c1.1-1.1,2.2-2.2,3.4-3.4c-0.9,0-1.8,0-2.6,0c-3.6,0.1-6.3,2.8-6.4,6.4c0,1,0,1.9,0,2.9c-1,0-2,0-3,0c0-1.5,0-3,0.2-4.4
		c0.3-2.4,1.5-4.3,3.4-5.8c1.8-1.4,3.8-2.1,6-2.1c0.7,0,1.4,0,2.1,0c-1.1-1.1-2.2-2.2-3.2-3.2c0.8-0.8,1.5-1.5,2.2-2.2
		c0.1,0.1,0.2,0.2,0.3,0.3c2.1,2.1,4.3,4.3,6.4,6.4C38.8,28.6,38.9,28.7,39,28.8C39,28.8,39,28.8,39,28.8z"/>
</g>
</svg>
